<svg width="35" height="18" viewBox="0 0 35 18" fill="none" xmlns="http://www.w3.org/2000/svg">
<path d="M25.6271 0.877402C25.9569 1.62708 25.4771 4.14599 25.4771 4.14599C25.4771 4.14599 23.2281 2.82656 22.8982 2.07688C22.5684 1.32721 22.8982 0.457584 23.6479 0.127727C24.3976 -0.202131 25.2972 0.127727 25.6271 0.877402Z" fill="#64892F"/>
<path d="M26.1969 4.29588H25.4172C25.4172 3.00644 26.1369 0.817383 29.0157 0.817383V1.59705C26.4068 1.59705 26.1969 4.05598 26.1969 4.29588Z" fill="#947151"/>
<path d="M25.8068 4.14594C23.6178 1.9269 17.1106 1.83693 17.1106 8.19419C17.1106 12.2124 21.8485 17.9999 23.9177 17.9999C24.8473 17.9999 25.1771 17.4002 25.7469 17.4002C26.2866 17.4002 26.4666 17.97 27.666 17.97C29.7351 17.9999 34.5031 12.2424 34.5031 8.19419C34.5031 1.83693 27.9959 1.9269 25.8068 4.14594Z" fill="#8CC63E"/>
<path d="M9.01329 0.877402C9.34314 1.62708 8.86335 4.14599 8.86335 4.14599C8.86335 4.14599 6.61432 2.82656 6.28446 2.07688C5.95461 1.32721 6.28446 0.457584 7.03414 0.127727C7.78382 -0.202131 8.68343 0.127727 9.01329 0.877402Z" fill="#83BF4F"/>
<path d="M9.58289 4.29637H8.80322C8.80322 3.00692 9.52291 0.817871 12.4017 0.817871V1.59753C9.7928 1.59753 9.58289 4.05647 9.58289 4.29637Z" fill="#947151"/>
<path d="M9.19307 4.14594C7.00401 1.9269 0.496826 1.83693 0.496826 8.19419C0.496826 12.2124 5.23478 17.9999 7.30388 17.9999C8.23348 17.9999 8.56334 17.4002 9.13309 17.4002C9.67286 17.4002 9.85278 17.9999 11.0523 17.9999C13.1214 17.9999 17.8893 12.2424 17.8893 8.19419C17.8893 1.83693 11.3821 1.9269 9.19307 4.14594Z" fill="#EF4D3C"/>
</svg>
