<svg width="33" height="34" viewBox="0 0 33 34" fill="none" xmlns="http://www.w3.org/2000/svg">
<path d="M15.9677 1.64508C16.5862 3.05069 15.6866 7.77352 15.6866 7.77352C15.6866 7.77352 11.4698 5.29965 10.8513 3.89405C10.2328 2.48845 10.8513 0.857946 12.2569 0.239481C13.6625 -0.378985 15.3492 0.239481 15.9677 1.64508Z" fill="#64892F"/>
<path d="M17.0359 8.05464H15.5741C15.5741 5.637 16.9235 1.53264 22.321 1.53264V2.99447C17.4295 2.99447 17.0359 7.60485 17.0359 8.05464Z" fill="#947151"/>
<path d="M16.305 7.77351C12.2006 3.61293 0 3.44426 0 15.3638C0 22.8978 8.88341 33.7491 12.7629 33.7491C14.5058 33.7491 15.1243 32.6246 16.1926 32.6246C17.2046 32.6246 17.5419 33.6928 19.7909 33.6928C23.6704 33.7491 32.61 22.954 32.61 15.3638C32.61 3.44426 20.4094 3.61293 16.305 7.77351Z" fill="#8CC63E"/>
</svg>
