<svg width="66" height="68" viewBox="0 0 66 68" fill="none" xmlns="http://www.w3.org/2000/svg">
<path d="M31.9353 3.29017C33.1722 6.10138 31.3731 15.547 31.3731 15.547C31.3731 15.547 22.9394 10.5993 21.7025 7.7881C20.4656 4.97689 21.7025 1.71589 24.5137 0.478961C27.3249 -0.75797 30.6984 0.478961 31.9353 3.29017Z" fill="#83BF4F"/>
<path d="M34.0718 16.1093H31.1482C31.1482 11.274 33.847 3.06526 44.642 3.06526V5.98892C34.859 5.98892 34.0718 15.2097 34.0718 16.1093Z" fill="#947151"/>
<path d="M32.61 15.547C24.4013 7.22586 0 6.88851 0 30.7275C0 45.7956 17.7668 67.4981 25.5258 67.4981C29.0117 67.4981 30.2486 65.2492 32.3851 65.2492C34.4092 65.2492 35.0839 67.4981 39.5818 67.4981C47.3407 67.4981 65.22 45.9081 65.22 30.7275C65.22 6.88851 40.8187 7.22586 32.61 15.547Z" fill="#EF4D3C"/>
</svg>
