<svg width="32" height="32" viewBox="0 0 32 32" fill="none" xmlns="http://www.w3.org/2000/svg">
<path d="M31.5005 15.9998C31.5005 24.5603 24.5608 31.5 16.0002 31.5C7.4397 31.5 0.5 24.5603 0.5 15.9998C0.5 7.43921 7.4397 0.499512 16.0002 0.499512C24.5608 0.499512 31.5005 7.43921 31.5005 15.9998Z" fill="#181F84" stroke="#4C59F1"/>
<path fill-rule="evenodd" clip-rule="evenodd" d="M13.0535 18.6829C12.706 18.2536 12.0763 18.1872 11.647 18.5347C11.2177 18.8821 11.1514 19.5118 11.4989 19.9411L15.1576 24.4616C15.1638 24.4695 15.1701 24.4773 15.1766 24.485L15.9447 25.4341L16.7139 24.4837C16.7196 24.4769 16.7252 24.4699 16.7308 24.4629L20.3906 19.9411C20.738 19.5118 20.6717 18.8821 20.2424 18.5347C19.8131 18.1872 19.1834 18.2536 18.8359 18.6829L16.9447 21.0196L16.9447 7.2251C16.9447 6.67281 16.497 6.2251 15.9447 6.2251C15.3924 6.2251 14.9447 6.67281 14.9447 7.2251L14.9447 21.0195L13.0535 18.6829Z" fill="#4C59F1"/>
</svg>
